<?xml version="1.0" encoding="UTF-8"?>
<svg id="Layer_1" data-name="Layer 1" xmlns="http://www.w3.org/2000/svg" xmlns:xlink="http://www.w3.org/1999/xlink" viewBox="0 0 63.01 50.56">
  <defs>
    <style>
      .cls-1 {
        fill: url(#GradientFill_1-2);
      }

      .cls-1, .cls-2, .cls-3, .cls-4, .cls-5, .cls-6, .cls-7, .cls-8, .cls-9 {
        fill-rule: evenodd;
      }

      .cls-2 {
        fill: url(#GradientFill_1-3);
      }

      .cls-3, .cls-9 {
        fill: none;
      }

      .cls-4 {
        fill: url(#GradientFill_1-5);
      }

      .cls-5 {
        fill: url(#GradientFill_1);
      }

      .cls-6 {
        fill: url(#GradientFill_1-6);
      }

      .cls-7 {
        fill: url(#GradientFill_1-4);
      }

      .cls-8 {
        fill: #677173;
      }

      .cls-9 {
        stroke: #d2ab67;
        stroke-linecap: round;
        stroke-linejoin: round;
        stroke-width: .28px;
      }
    </style>
    <linearGradient id="GradientFill_1" data-name="GradientFill 1" x1="12.64" y1="9.82" x2="29.54" y2="13.23" gradientUnits="userSpaceOnUse">
      <stop offset="0" stop-color="#d2ab67"/>
      <stop offset=".16" stop-color="#f3d067"/>
      <stop offset=".41" stop-color="#f3d063"/>
      <stop offset=".58" stop-color="#fdf499"/>
      <stop offset=".72" stop-color="#f3d063"/>
      <stop offset=".88" stop-color="#f3d067"/>
      <stop offset="1" stop-color="#fdf5a1"/>
    </linearGradient>
    <linearGradient id="GradientFill_1-2" data-name="GradientFill 1" x1="41.58" y1="20.86" x2="58.87" y2="24.35" xlink:href="#GradientFill_1"/>
    <linearGradient id="GradientFill_1-3" data-name="GradientFill 1" x1="50.29" y1="8.47" x2="61.46" y2="9.82" xlink:href="#GradientFill_1"/>
    <linearGradient id="GradientFill_1-4" data-name="GradientFill 1" x1="10.87" y1="23.98" x2="18.41" y2="24.61" xlink:href="#GradientFill_1"/>
    <linearGradient id="GradientFill_1-5" data-name="GradientFill 1" x1="15.94" y1="16.25" x2="26.45" y2="17.58" xlink:href="#GradientFill_1"/>
    <linearGradient id="GradientFill_1-6" data-name="GradientFill 1" x1="16.21" y1="11.66" x2="53.43" y2="21.94" xlink:href="#GradientFill_1"/>
  </defs>
  <path class="cls-8" d="M55.78,2.83V.48h-.84v-.48h2.25v.48h-.84v2.36h-.57ZM57.55,2.83V0h.86l.51,1.93.5-1.93h.86v2.83h-.53V.6s-.56,2.23-.56,2.23h-.55l-.56-2.23v2.23h-.53Z"/>
  <path class="cls-8" d="M9.72,12.22c-.3,1.4-.56,3.2-.53,5.3.03,1.81.26,3.37.53,4.64-2.74.75-5.48,1.5-8.22,2.25.21-4.92.42-9.84.64-14.76,2.53.86,5.05,1.71,7.58,2.57Z"/>
  <path class="cls-5" d="M10.65,17.03c-.08-.91-.38-5.63,3.04-9.36.71-.77,2.99-3.25,6.76-3.54,4.47-.34,7.41,2.64,7.7,2.95,2.02,2.12,2.46,4.56,2.58,5.46-.38-.41-4.4-4.62-10.32-3.84-4.5.6-8.32,3.85-9.77,8.32Z"/>
  <path class="cls-1" d="M40.46,21.06s12.06,13.77,20.54-4.03c-.27.57-.05,1.91-.14,2.56-.25,1.93-.82,3.81-1.8,5.5-1.82,3.15-5.16,5.28-8.87,5.13-5.21-.21-8.46-4.51-9.74-9.16Z"/>
  <path class="cls-8" d="M48.87,4.14c-6.75.11-13.5,8.49-17.76,13.78h0c-.24.3-.47.59-.71.89h0c-1.34,1.67-2.78,3.32-4.6,4.47h0c-1.91,1.21-4.16,1.87-6.42,1.88h0c-.56,0-1.12-.03-1.66-.19h0c-.51-.15-1-.45-1.46-.72h0c-.85-.5-1.57-1.38-2.1-2.19h0c-.55-.85-.94-1.79-1.13-2.78h0c-.39-2.04.06-4.22,1.22-5.94h0c-1.83,1.88-2.82,4.54-2.68,7.16h0c.25,4.63,3.92,8.45,8.55,8.81h0c3.19.25,6.35-.98,8.95-2.83h0c2.6-1.85,4.71-4.3,6.72-6.79h0c2.01-2.48,3.96-5.04,6.33-7.18h0c2.7-2.45,6.25-4.39,9.86-3.85h0c2.39.36,4.58,1.84,5.8,3.93h0c1.22,2.09,1.44,4.73.57,6.98h0c3.11-3.32,1.48-9.04-1.62-11.85h0c-3.3-3-5.97-3.58-7.75-3.58h0s-.09,0-.13,0h0Z"/>
  <path class="cls-2" d="M50.25,3.1s11.85,1.88,11.23,12.09c0,0-1.31-10.13-11.23-12.09Z"/>
  <path class="cls-7" d="M10.88,18.46c-.09,1.2,0,2.39.29,3.56.66,2.68,2.29,4.99,4.55,6.57.4.28.81.54,1.24.77.46.25,1.02.43,1.45.72-.84.08-1.93-.4-2.68-.76-.87-.42-1.68-.99-2.35-1.69-2.35-2.41-2.73-5.97-2.49-9.18Z"/>
  <path class="cls-4" d="M23.47,16.69c0,1.12-.95,2.02-2.12,2.02s-2.12-.9-2.12-2.02.95-2.02,2.12-2.02,2.12.9,2.12,2.02h0ZM27,18.14c0,.81-.65,1.46-1.46,1.46s-1.46-.66-1.46-1.46.65-1.46,1.46-1.46,1.46.65,1.46,1.46h0ZM23.68,21.36c0,.83-.67,1.51-1.51,1.51s-1.51-.67-1.51-1.51.67-1.51,1.51-1.51,1.51.67,1.51,1.51h0ZM19.3,19.89c0-.81-.66-1.46-1.46-1.46s-1.46.66-1.46,1.46.65,1.46,1.46,1.46,1.46-.65,1.46-1.46h0ZM18.33,15.47c0,.81-.65,1.46-1.46,1.46s-1.46-.65-1.46-1.46.66-1.46,1.46-1.46,1.46.65,1.46,1.46h0ZM21.73,12.43c0,.81-.65,1.46-1.46,1.46s-1.46-.65-1.46-1.46.66-1.46,1.46-1.46,1.46.65,1.46,1.46h0ZM25.91,13.53c0-.81-.66-1.46-1.46-1.46s-1.46.66-1.46,1.46.66,1.46,1.46,1.46,1.46-.65,1.46-1.46Z"/>
  <path class="cls-6" d="M12.77,16.58h-.33l-.24.85.38.09.19-.94h0ZM57.58,10.97l.78,1.12.34-.56-.75-.96-.38.4h0ZM55.64,9.14l1.25,1.14.41-.88-1.42-1-.25.74h0ZM53.22,7.52l1.38.88.41-.88-1.47-.82-.31.82h0ZM50.25,5.77v1l2.06.47v-1l-2.06-.47h0ZM46.32,6.08v.22l.25.94,2.38-.28-.22-1.19-2.41.31h0ZM43.09,7.93v.16l.5.91,1.73-1.07-.35-.97-1.88.97h0ZM40.33,10.22l.53.85,1.76-1.39-.6-1.03-1.69,1.57h0ZM38.13,12.32l.75.78,1.11-1.03-.82-.99-1.03,1.25h0ZM36.43,14.39l1.01-1.29.68.8-1.04,1.2-.66-.71h0ZM34.5,16.81l.71.75,1.06-1.44-.78-.68-.99,1.36h0ZM32.6,19.12l.6.73,1.3-1.39-.8-.73-1.11,1.39h0ZM30.6,21.17l1.29-1.41.71.82-1.32,1.39-.68-.8h0ZM28.64,22.99l1.05.94,1.05-1.15-.78-.99-1.32,1.2h0ZM26.67,24.81l1.34-1.18.75,1.01-1.51,1.14-.59-.96h0ZM24.18,26l.12.15.38.92,1.65-.63-.41-1.21-1.73.77h0ZM21.71,26.44l.09,1.27,1.67-.24-.21-1.32-1.55.28h0ZM20.91,26.44h-1.61v1.27h1.61v-1.27h0ZM16.87,27.12l1.53.54.27-1.13-1.46-.38-.35.96h0ZM14.84,25.83l1.27,1.08.59-.96-1.29-.85-.57.73h0ZM13.53,24.51l.82-.71.82.88-.89.8-.74-.97h0ZM12.62,22.86l.61,1.24,1.04-.69-.82-1.11-.82.57h0ZM11.93,21.2l.96-.28.44.97-1.05.52-.35-1.21h0ZM11.93,19.49v1.11l.84-.13-.09-1.1-.75.11h0ZM11.93,18.94l.56.06.13-.86-.53-.08-.16.88Z"/>
  <g>
    <g>
      <path class="cls-9" d="M4.18,40.02c-.31-.04-.44-.05-.59-.11-.18-.07-.21-.24-.22-.4-.03-.55-.02-2.75-.02-3.99,0-.04.02-.06.04-.07.13,0,.68-.02.92,0,.17.02.26.07.34.27.08.22.13.47.18.78.03.03.29.02.32-.02.04-.57.12-1.16.21-1.53,0-.02-.03-.07-.05-.07-.23.07-.52.11-.99.11H1.21c-.21,0-.53-.02-.81-.11-.03,0-.08.03-.08.05-.03.4-.11,1.13-.18,1.49.03.06.3.11.33.09.1-.29.21-.54.32-.75.12-.24.25-.31.43-.32.2-.02.68-.02.84,0,.03,0,.04.05.04.07,0,1.37,0,2.98-.03,3.87-.03.39-.1.48-.32.54-.11.04-.34.06-.56.09-.04.04-.04.25,0,.3.29,0,.75-.03,1.54-.03.6,0,1.07.03,1.42.03.04-.04.05-.26.02-.3h0ZM5.86,35.27c.18.03.31.04.46.08.18.05.22.15.24.43,0,.26,0,1.03,0,1.89,0,.77,0,1.58,0,1.71-.03.38-.08.51-.32.56l-.4.08s-.03.27,0,.3c.18,0,.61-.03,1.28-.03.81,0,1.23.03,1.39.03.04-.04.07-.25.04-.3-.18-.04-.37-.07-.48-.11-.21-.06-.24-.21-.24-.47,0-.39,0-.98,0-1.54,0,0,0-.04.02-.05.04-.02.11-.02,1.12-.03.39,0,.82,0,.99,0,.03,0,.04.04.04.06,0,.57,0,1.18,0,1.6,0,.28-.08.4-.23.44-.12.03-.25.05-.42.08-.04.04-.04.26,0,.3.19,0,.75-.03,1.33-.03.62,0,1.08.03,1.3.03.04-.03.06-.26.04-.3-.3-.05-.44-.07-.56-.11-.14-.06-.18-.2-.18-.44-.02-.39-.02-1.07-.02-1.66,0-1.08,0-1.45.02-2.04,0-.27.06-.36.22-.41.1-.04.25-.06.41-.09.04-.04.04-.26,0-.3-.25,0-.53.03-1.25.03s-.97-.03-1.33-.03c-.05.04-.05.26,0,.3.21.03.36.04.48.09.13.04.17.19.18.31.03.48.02,1.13.02,1.57,0,.03-.03.05-.05.06-.11,0-.41,0-.95,0-.95,0-1.05,0-1.13-.02-.03,0-.04-.04-.04-.06,0-.48,0-1.02,0-1.44,0-.26.04-.38.21-.44.09-.04.26-.06.4-.08.04-.03.04-.25,0-.3-.23,0-.61.03-1.29.03-.72,0-1.09-.03-1.29-.03-.04.03-.04.27,0,.3h0ZM12.47,35.27c.17.02.32.04.46.08.17.05.23.12.25.37.03.32.03,1,.03,1.65,0,1.01,0,1.61-.03,2.12,0,.28-.09.38-.25.42-.12.03-.34.07-.65.11-.02.04-.02.23,0,.3.47,0,1.11-.03,1.58-.03.93,0,1.77.04,2.51.04.38,0,.42-.06.46-.14.16-.3.36-1.09.4-1.29-.04-.04-.26-.12-.32-.11-.13.31-.3.61-.47.81-.19.23-.32.26-.71.26-.49,0-.92-.03-1.09-.06-.11-.03-.18-.15-.18-.29v-1.54s.04-.08.06-.08c.26,0,.94,0,1.1.02.18.03.25.12.3.25l.09.36s.3.02.34,0c0-.25-.02-.65-.02-.89,0-.28.03-.64.04-.85-.04-.04-.31-.04-.35-.02-.03.11-.04.23-.07.32-.05.22-.13.3-.32.31-.28.02-.89,0-1.11,0-.03,0-.06-.04-.06-.07,0-.6,0-1.14,0-1.7,0-.04.04-.15.09-.16.14-.02.99-.02,1.22,0,.12,0,.27.05.36.23.07.14.11.32.17.65.04.03.28,0,.33-.03.03-.49.06-1.05.12-1.33,0-.02-.02-.04-.03-.04-.31.04-.8.05-1.14.05h-1.76c-.43,0-.98-.03-1.33-.03-.04.03-.05.25-.02.3h0ZM19.18,35.27c.18.03.31.04.46.08.18.05.22.15.24.43,0,.26,0,1.03,0,1.89,0,.77,0,1.58,0,1.71-.03.38-.08.51-.32.56l-.4.08s-.03.27,0,.3c.18,0,.61-.03,1.28-.03.81,0,1.23.03,1.39.03.04-.04.07-.25.04-.3-.18-.04-.37-.07-.48-.11-.21-.06-.24-.21-.24-.47,0-.39,0-.98,0-1.54,0,0,0-.04.02-.05.04-.02.11-.02,1.12-.03.39,0,.82,0,.99,0,.03,0,.04.04.04.06,0,.57,0,1.18,0,1.6,0,.28-.08.4-.23.44-.12.03-.25.05-.42.08-.04.04-.04.26,0,.3.19,0,.75-.03,1.33-.03.62,0,1.08.03,1.3.03.04-.03.06-.26.04-.3-.3-.05-.44-.07-.56-.11-.14-.06-.18-.2-.18-.44-.02-.39-.02-1.07-.02-1.66,0-1.08,0-1.45.02-2.04,0-.27.06-.36.22-.41.1-.04.25-.06.41-.09.04-.04.04-.26,0-.3-.25,0-.53.03-1.25.03s-.97-.03-1.33-.03c-.05.04-.05.26,0,.3.21.03.36.04.48.09.13.04.17.19.18.31.03.48.02,1.13.02,1.57,0,.03-.03.05-.05.06-.11,0-.41,0-.95,0-.95,0-1.05,0-1.13-.02-.03,0-.04-.04-.04-.06,0-.48,0-1.02,0-1.44,0-.26.04-.38.21-.44.09-.04.26-.06.4-.08.04-.03.04-.25,0-.3-.23,0-.61.03-1.29.03-.72,0-1.09-.03-1.29-.03-.04.03-.04.27,0,.3h0ZM25.51,40.02s-.03.25,0,.3c.31,0,.67-.03.99-.03.51,0,.85.03,1.11.03.03-.04.05-.26.03-.3-.16-.03-.29-.05-.43-.09-.22-.04-.24-.17-.25-.29,0-.15.18-.66.33-1.09.02-.04.07-.08.1-.08.12,0,.35,0,.7,0,.23,0,.53,0,.67,0,.04,0,.07.04.09.06.12.31.33.91.4,1.2,0,.03,0,.11-.09.17-.08.05-.25.09-.43.12-.03.04-.02.25,0,.3.33,0,.61-.03,1.34-.03.68,0,1.06.03,1.28.03.04-.04.05-.26.04-.3-.66-.11-.7-.18-.99-.9-.3-.78-.99-2.77-1.3-3.63l-.15-.51c-.12,0-.25.02-.44.02-.16,0-.32,0-.46-.02-.02.15-.11.44-.18.61-.22.63-.93,2.58-1.41,3.72-.22.53-.34.61-.96.7h0ZM28.1,36.27c.18.48.47,1.37.55,1.64,0,.02-.02.04-.03.04-.09,0-.3,0-.59,0-.24,0-.4,0-.5,0-.02,0-.03-.03-.02-.06.14-.4.37-1.13.54-1.62,0,0,.03,0,.03,0h0ZM31.49,35.27c.17.02.34.05.45.08.16.04.24.16.25.39.02.39.02.92.02,1.77,0,.54,0,1.73-.03,2,0,.27-.07.39-.25.43-.11.03-.25.05-.4.07-.04.04-.03.26,0,.3.18,0,.58-.03,1.31-.03s1.11.03,1.31.03c.05-.02.06-.29.02-.3-.23-.04-.31-.04-.47-.09-.18-.05-.24-.16-.25-.41,0-.38-.02-.92-.02-1.47,0-.02.02-.05.04-.05h.21c.12,0,.19.06.25.16.28.47.69,1.21,1.04,1.64.05.08.23.26.44.37.36.16,1.26.2,1.77.16.04-.03.08-.29.06-.32-.45-.05-.5-.08-.81-.38-.43-.41-1.23-1.6-1.4-1.92,0-.02,0-.06,0-.07.58-.23,1.03-.64,1.03-1.33,0-.79-.59-1.34-1.67-1.34-.52,0-1,.03-1.67.03-.33,0-1.02-.03-1.23-.03-.04.02-.06.25-.03.3h0ZM33.74,35.35c.68,0,1.08.51,1.08,1.24,0,.55-.17.78-.4.9-.16.09-.57.12-.95.11-.03,0-.05-.04-.05-.07,0-1.16,0-1.81.02-2,0-.04.03-.11.06-.13.06-.03.18-.04.24-.04h0ZM37.34,35.27c.25.04.47.08.63.14.18.07.23.25.22.42-.03.68-.22,2.86-.3,3.53-.05.39-.16.51-.4.58-.12.04-.27.05-.44.08-.04.04-.03.25,0,.3.33,0,.7-.03,1.04-.03.58,0,.92.03,1.21.03.04-.04.05-.27.02-.3-.26-.04-.4-.07-.56-.11-.25-.08-.32-.19-.32-.51,0-.62.1-2.39.15-3.07.02,0,.04-.02.05-.02.78,1.88,1.35,3.22,1.56,3.94.04,0,.34.02.39,0,.25-.71,1.29-3.03,1.69-3.92,0,0,.04,0,.04,0,0,.85,0,2.47,0,3.16,0,.26-.04.39-.18.44-.12.04-.25.06-.47.11-.03.04-.04.25,0,.3.39,0,.76-.03,1.25-.03.86,0,1.2.03,1.49.03.04-.04.06-.25.03-.3-.2-.04-.38-.07-.5-.11-.25-.05-.29-.25-.31-.48-.04-.61-.11-2.98-.1-3.61,0-.23.03-.37.24-.45.12-.04.29-.07.54-.11.04-.04.04-.28,0-.3-.53,0-.95.03-1.94.03,0,.13-.09.34-.17.54-.25.63-1.02,2.26-1.26,2.71,0,0-.04.02-.05,0-.24-.47-.9-1.92-1.24-2.69-.09-.18-.15-.39-.17-.56-.84,0-1.44-.03-2.11-.03-.03.02-.05.25-.04.3h0ZM47.86,40.45c.91,0,1.78-.35,2.35-1.11.36-.47.53-1.12.53-1.77,0-1.47-.97-2.72-2.79-2.72-.92,0-1.66.32-2.16.82-.6.53-.81,1.27-.81,1.98s.2,1.44.74,2.01c.48.49,1.16.8,2.14.8h0ZM48.12,40.06c-.36,0-.65-.13-.9-.33-.61-.54-.83-1.56-.83-2.36s.17-1.58.66-1.94c.17-.13.42-.2.67-.2.33,0,.59.11.83.32.54.48.77,1.44.77,2.33,0,.75-.13,1.53-.54,1.91-.18.18-.43.28-.67.28h0ZM51.33,35.28c.23.02.39.07.54.13.22.08.32.34.32.57,0,1.28-.04,2.97-.09,3.42-.03.28-.11.44-.3.5-.16.05-.31.08-.51.11-.03.03-.04.25,0,.3.28,0,.69-.03,1.15-.03.4,0,.8.03,1.11.03.04-.05.04-.27,0-.3-.22-.04-.37-.06-.51-.1-.25-.05-.38-.18-.4-.56-.02-.37-.04-2.1-.02-3.05,0,0,.02-.04.04,0,.59.75,2.55,3.34,3.07,4.06.17-.02.73-.03.88,0,0-.32-.02-.83-.02-1.21,0-1.12.02-2.48.08-3.24.03-.38.12-.47.38-.55.11-.04.23-.05.34-.07.04-.03.04-.27,0-.3-.17,0-.54.03-1.03.03-.56,0-.96-.03-1.18-.03-.02.02-.04.26,0,.3.22.03.35.04.53.09.28.07.37.2.39.5.05.57.04,1.7.04,2.79-.02,0-.02,0-.04,0-.58-.68-1.85-2.33-2.54-3.2-.18-.22-.26-.35-.32-.48-.12,0-.39.02-.66.02-.55,0-.97-.04-1.29-.03-.02.03-.03.27,0,.31h0ZM57.28,35.26c.14,0,.27.04.39.06.22.06.35.14.66.67.31.54.81,1.47.99,1.86.07.17.11.31.11.45,0,.38,0,.73-.02,1.14,0,.25-.03.44-.25.49-.12.04-.29.06-.54.1-.03.02-.03.26,0,.3.38,0,.64-.04,1.34-.04.52,0,1.17.04,1.47.04.03-.04.05-.27.03-.3-.2-.04-.36-.06-.49-.1-.26-.05-.28-.25-.29-.51,0-.45-.02-.8-.02-1.21,0-.19.03-.27.1-.42.19-.39.72-1.33,1.04-1.86.26-.4.39-.49.64-.58.08-.04.24-.05.4-.08.04-.04.04-.27,0-.3-.27,0-.54.03-.98.03s-.84-.03-1.06-.03c-.04.03-.05.23-.04.3.19.03.31.04.46.08.19.05.22.13.18.29-.1.32-.61,1.29-.89,1.77-.02,0-.04,0-.06,0-.13-.23-.76-1.47-.92-1.83-.05-.12-.07-.22.06-.25.07-.02.19-.05.27-.06.03-.04.03-.26,0-.3-.16,0-.75.03-1.34.03-.47,0-.9-.03-1.21-.03-.04.04-.05.23-.02.29h0ZM15.82,48.63c-.05-.03-.28.04-.31.1,0,.31.18,1.27.28,1.41.22.11.75.28,1.36.28,1.36,0,2.11-.75,2.11-1.68,0-.63-.29-1.02-.94-1.42-.38-.23-.6-.36-.97-.6-.36-.25-.54-.48-.54-.85,0-.41.29-.74.75-.74.27,0,.47.05.66.2.21.15.32.4.4.94.04.03.26.03.31-.02.04-.55.09-.96.15-1.29-.43-.04-.79-.16-1.47-.16-1.01,0-1.87.55-1.87,1.59,0,.93.63,1.33,1.38,1.8.82.5.98.76.98,1.18,0,.44-.32.68-.74.68-.25,0-.57-.07-.8-.24-.32-.25-.55-.59-.75-1.19h0ZM19.47,45.23c.14,0,.27.04.39.06.22.06.35.14.66.67.31.54.81,1.47.99,1.86.07.17.11.31.11.45,0,.38,0,.73-.02,1.14,0,.25-.03.44-.25.49-.12.04-.29.06-.54.1-.03.02-.03.26,0,.3.38,0,.64-.04,1.34-.04.52,0,1.17.04,1.47.04.03-.04.05-.27.03-.3-.2-.04-.36-.06-.49-.1-.26-.05-.28-.25-.29-.51,0-.45-.02-.8-.02-1.21,0-.19.03-.27.1-.42.19-.39.72-1.33,1.04-1.86.26-.4.39-.49.64-.58.08-.04.24-.05.4-.08.04-.04.04-.27,0-.3-.27,0-.54.03-.98.03s-.84-.03-1.06-.03c-.04.03-.05.23-.04.3.19.03.31.04.46.08.19.05.22.13.18.29-.1.32-.61,1.29-.89,1.77-.02,0-.04,0-.06,0-.13-.23-.76-1.47-.92-1.83-.05-.12-.07-.22.06-.25.07-.02.19-.05.27-.06.03-.04.03-.26,0-.3-.16,0-.75.03-1.34.03-.47,0-.9-.03-1.21-.03-.04.04-.05.23-.02.29h0ZM25.36,48.63c-.05-.03-.28.04-.31.1,0,.31.18,1.27.28,1.41.22.11.75.28,1.36.28,1.36,0,2.11-.75,2.11-1.68,0-.63-.29-1.02-.94-1.42-.38-.23-.6-.36-.97-.6-.36-.25-.54-.48-.54-.85,0-.41.29-.74.75-.74.27,0,.47.05.66.2.21.15.32.4.4.94.04.03.26.03.31-.02.04-.55.09-.96.15-1.29-.43-.04-.79-.16-1.47-.16-1.01,0-1.87.55-1.87,1.59,0,.93.63,1.33,1.38,1.8.82.5.98.76.98,1.18,0,.44-.32.68-.74.68-.25,0-.57-.07-.8-.24-.32-.25-.55-.59-.75-1.19h0ZM33.18,49.99c-.31-.04-.44-.05-.59-.11-.18-.07-.21-.24-.22-.4-.03-.55-.02-2.75-.02-3.99,0-.04.02-.06.04-.07.13,0,.68-.02.92,0,.17.02.26.07.34.27.08.22.13.47.18.78.03.03.29.02.32-.02.04-.57.12-1.16.21-1.53,0-.02-.03-.07-.05-.07-.23.07-.52.11-.99.11h-3.11c-.21,0-.53-.02-.81-.11-.03,0-.08.03-.08.05-.03.4-.11,1.13-.18,1.49.03.06.3.11.33.09.1-.29.21-.54.32-.75.12-.24.25-.31.43-.32.2-.02.68-.02.84,0,.03,0,.04.05.04.07,0,1.37,0,2.98-.03,3.87-.03.39-.1.48-.32.54-.11.04-.34.06-.56.09-.04.04-.04.25,0,.3.29,0,.75-.03,1.54-.03.6,0,1.07.03,1.42.03.04-.04.05-.26.02-.3h0ZM34.84,45.24c.17.02.32.04.46.08.17.05.23.12.25.37.03.32.03,1,.03,1.65,0,1.01,0,1.61-.03,2.12,0,.28-.09.38-.25.42-.12.03-.34.07-.65.11-.02.04-.02.23,0,.3.47,0,1.11-.03,1.58-.03.93,0,1.77.04,2.51.04.38,0,.42-.06.46-.14.16-.3.36-1.09.4-1.29-.04-.04-.26-.12-.32-.11-.13.31-.3.61-.47.81-.19.23-.32.26-.71.26-.49,0-.92-.03-1.09-.06-.11-.03-.18-.15-.18-.29v-1.54s.04-.08.06-.08c.26,0,.94,0,1.1.02.18.03.25.12.3.25l.09.36s.3.02.34,0c0-.25-.02-.65-.02-.89,0-.28.03-.64.04-.85-.04-.04-.31-.04-.35-.02-.03.11-.04.23-.07.32-.05.22-.13.3-.32.31-.28.02-.89,0-1.11,0-.03,0-.06-.04-.06-.07,0-.6,0-1.14,0-1.7,0-.04.04-.15.09-.16.14-.02.99-.02,1.22,0,.12,0,.27.05.36.23.07.14.11.32.17.65.04.03.28,0,.33-.03.03-.49.06-1.05.12-1.33,0-.02-.02-.04-.03-.04-.31.04-.8.05-1.14.05h-1.76c-.43,0-.98-.03-1.33-.03-.04.03-.05.25-.02.3Z"/>
      <path class="cls-3" d="M57.36,35.28h0c.11,0,.22.02.32.04.22.06.35.14.66.67.31.54.81,1.47.99,1.86.07.17.11.31.11.45,0,.38,0,.73-.02,1.14,0,.25-.03.44-.25.49-.12.04-.29.06-.54.1-.03.02-.03.26,0,.3.38,0,.64-.04,1.34-.04.52,0,1.17.04,1.47.04.03-.04.05-.27.03-.3-.2-.04-.36-.06-.49-.1-.26-.05-.28-.25-.29-.51,0-.45-.02-.8-.02-1.21,0-.19.03-.27.1-.42.19-.39.72-1.33,1.04-1.86.26-.4.39-.49.64-.58.08-.04.24-.05.4-.08.04-.04.04-.27,0-.3-.27,0-.54.03-.98.03s-.84-.03-1.06-.03c-.04.03-.05.23-.04.3.19.03.31.04.46.08.19.05.22.13.18.29-.1.32-.61,1.29-.89,1.77-.02,0-.04,0-.06,0-.13-.23-.76-1.47-.92-1.83-.05-.12-.07-.22.06-.25.07-.02.19-.05.27-.06.03-.04.03-.26,0-.3-.16,0-.75.03-1.34.03-.44,0-.85-.02-1.16-.03h0s.07,0,.07,0c.04.03.04.27,0,.3h-.07ZM57.36,34.98h0c-.19,0-.53.03-.96.03-.56,0-.96-.03-1.18-.03-.02.02-.04.26,0,.3.22.03.35.04.53.09.28.07.37.2.39.5.05.57.04,1.7.04,2.79-.02,0-.02,0-.04,0-.58-.68-1.85-2.33-2.54-3.2-.18-.22-.26-.35-.32-.48-.12,0-.39.02-.66.02-.55,0-.97-.04-1.29-.03-.02.03-.03.27,0,.31.23.02.39.07.54.13.22.08.32.34.32.57,0,1.28-.04,2.97-.09,3.42-.03.28-.11.44-.3.5-.16.05-.31.08-.51.11-.03.03-.04.25,0,.3.28,0,.69-.03,1.15-.03.4,0,.8.03,1.11.03.04-.05.04-.27,0-.3-.22-.04-.37-.06-.51-.1-.25-.05-.38-.18-.4-.56-.02-.37-.04-2.1-.02-3.05,0,0,.02-.04.04,0,.59.75,2.55,3.34,3.07,4.06.17-.02.73-.03.88,0,0-.32-.02-.83-.02-1.21,0-1.12.02-2.48.08-3.24.03-.38.12-.47.38-.55.09-.03.18-.05.28-.06h0s-.07-.02-.07-.02c-.04-.06-.02-.25.02-.29h.06ZM47.86,40.45v-.42c.08.02.17.02.26.02.24,0,.49-.11.67-.28.4-.39.54-1.17.54-1.91,0-.89-.23-1.84-.77-2.33-.21-.18-.43-.28-.69-.31v-.38h.09c1.83,0,2.79,1.25,2.79,2.72,0,.65-.17,1.3-.53,1.77-.57.76-1.44,1.11-2.35,1.11ZM47.86,34.84v.38s-.09,0-.14,0c-.25,0-.5.07-.67.2-.49.36-.66,1.11-.66,1.94s.22,1.83.83,2.36c.18.15.39.26.63.31v.42c-.98,0-1.66-.31-2.14-.8-.54-.57-.74-1.34-.74-2.01,0-.7.21-1.45.81-1.98.48-.48,1.19-.8,2.07-.82h0ZM37.14,50.27v-.49c.21.03.57.04.96.04s.52-.04.71-.26c.17-.19.33-.5.47-.81.06,0,.29.07.32.11-.04.2-.25.99-.4,1.29-.04.08-.08.14-.46.14-.49,0-1.03-.02-1.6-.03h0ZM37.14,47.85v-.5c.28,0,.66,0,.87,0,.18,0,.26-.09.32-.31.03-.09.04-.2.07-.32.04-.03.31-.02.35.02,0,.21-.04.57-.04.85,0,.24,0,.64.02.89-.04.03-.3.04-.34,0l-.09-.36c-.05-.13-.12-.23-.3-.25-.12-.01-.54-.02-.85-.02h0ZM37.14,45.41v-.44h.81c.34,0,.83,0,1.14-.05,0,0,.03.02.03.04-.06.27-.1.83-.12,1.33-.05.04-.29.05-.33.03-.05-.32-.1-.51-.17-.65-.09-.18-.24-.22-.36-.23-.17-.02-.69-.02-1-.02h0ZM37.14,40.33h0c.31-.02.64-.04.96-.04.58,0,.92.03,1.21.03.04-.04.05-.27.02-.3-.26-.04-.4-.07-.56-.11-.25-.08-.32-.19-.32-.51,0-.62.1-2.39.15-3.07.02,0,.04-.02.05-.02.78,1.88,1.35,3.22,1.56,3.94.04,0,.34.02.39,0,.25-.71,1.29-3.03,1.69-3.92,0,0,.04,0,.04,0,0,.85,0,2.47,0,3.16,0,.26-.04.39-.18.44-.12.04-.25.06-.47.11-.03.04-.04.25,0,.3.39,0,.76-.03,1.25-.03.86,0,1.2.03,1.49.03.04-.04.06-.25.03-.3-.2-.04-.38-.07-.5-.11-.25-.05-.29-.25-.31-.48-.04-.61-.11-2.98-.1-3.61,0-.23.03-.37.24-.45.12-.04.29-.07.54-.11.04-.04.04-.28,0-.3-.53,0-.95.03-1.94.03,0,.13-.09.34-.17.54-.25.63-1.02,2.26-1.26,2.71,0,0-.04.02-.05,0-.24-.47-.9-1.92-1.24-2.69-.09-.18-.15-.39-.17-.56-.84,0-1.44-.03-2.11-.03-.03.02-.05.25-.04.3.25.04.47.08.63.14.18.07.23.25.22.42-.03.68-.22,2.86-.3,3.53-.05.39-.16.51-.4.58-.1.03-.22.05-.35.07h0s.11,0,.11,0c.02.03-.03.29-.06.32h-.04ZM37.14,40h0s-.09.02-.09.02c-.04.04-.03.25,0,.3h.09s0,.01,0,.01c-.52.04-1.38,0-1.73-.16-.21-.11-.39-.29-.44-.37-.28-.34-.59-.87-.85-1.31v-.93c.13-.02.24-.05.3-.08.23-.11.4-.34.4-.9s-.25-1.02-.7-1.18v-.44c.1,0,.19,0,.29,0,1.08,0,1.67.55,1.67,1.34,0,.68-.45,1.1-1.03,1.33,0,0-.02.05,0,.07.17.32.97,1.51,1.4,1.92.28.27.35.32.7.36h0ZM37.14,44.97v.44c-.11,0-.19,0-.22,0-.04,0-.09.11-.09.16,0,.56,0,1.11,0,1.7,0,.04.04.07.06.07h.25v.5h-.25s-.06.06-.06.08v1.54c0,.14.08.26.18.29.03,0,.08.01.13.02v.49c-.29,0-.59,0-.91,0-.47,0-1.11.03-1.58.03-.02-.07-.02-.25,0-.3.31-.04.53-.08.65-.11.16-.04.25-.14.25-.42.03-.5.03-1.11.03-2.12,0-.65,0-1.33-.03-1.65-.02-.25-.08-.32-.25-.37-.13-.04-.29-.06-.46-.08-.04-.04-.02-.27.02-.3.34,0,.9.03,1.33.03h.95ZM34.12,46.48v-1.56c.07-.01.13-.03.18-.05.03,0,.05.05.05.07-.09.37-.17.96-.21,1.53,0,0-.01,0-.03.01h0ZM34.12,40.32v-.3h.03s.04.29-.02.3h-.01ZM34.12,34.98v.44c-.11-.04-.24-.06-.38-.06-.06,0-.18,0-.24.04-.04.03-.06.1-.06.13-.02.19-.02.84-.02,2,0,.04.03.07.05.07.22.01.46,0,.65-.02v.93c-.07-.12-.14-.23-.2-.33-.06-.1-.13-.15-.25-.16h-.21s-.04.04-.04.05c0,.54,0,1.09.02,1.47,0,.25.06.36.25.41.15.04.23.05.43.08v.3c-.2,0-.62-.03-1.29-.03-.73,0-1.12.03-1.31.03-.04-.04-.05-.26,0-.3.16-.02.29-.04.4-.07.18-.04.25-.16.25-.43.02-.27.03-1.46.03-2,0-.85,0-1.39-.02-1.77,0-.24-.09-.36-.25-.39-.11-.03-.28-.06-.45-.08-.04-.05-.02-.28.03-.3.21,0,.9.03,1.23.03.54,0,.96-.02,1.38-.02h0ZM34.12,44.91v1.56c-.08.02-.28.03-.3,0-.04-.32-.1-.56-.18-.78-.08-.2-.18-.25-.34-.27-.24-.03-.79-.02-.92,0-.02,0-.04.04-.04.07,0,1.25,0,3.44.02,3.99,0,.17.04.33.22.4.15.05.28.06.59.11.04.04.02.26-.02.3-.35,0-.83-.03-1.42-.03-.8,0-1.26.03-1.54.03-.04-.04-.04-.26,0-.3.22-.03.45-.05.56-.09.23-.05.3-.15.32-.54.04-.89.03-2.5.03-3.87,0-.02-.02-.07-.04-.07-.16-.02-.64-.02-.84,0-.18,0-.31.08-.43.32-.11.2-.22.46-.32.75-.04.03-.31-.03-.33-.09.07-.36.16-1.1.18-1.49,0-.02.05-.06.08-.05.28.1.6.11.81.11h3.11c.36,0,.61-.02.81-.06h0ZM28.08,50.06v-2.6c.5.35.72.72.72,1.28s-.25,1.01-.72,1.32h0ZM28.08,45.87v-.98c.19.03.36.06.54.08-.06.33-.11.74-.15,1.29-.04.04-.26.04-.31.02-.02-.16-.05-.29-.08-.4h0ZM28.08,38.47v-.51c.27,0,.46,0,.54,0,0,0,.03-.03.03-.04-.09-.27-.38-1.16-.55-1.64h-.01v-1.28c.13,0,.28.02.43.02.18,0,.32,0,.44-.02l.15.51c.31.85,1,2.84,1.3,3.63.29.73.33.8.99.9.02.04,0,.26-.04.3-.22,0-.61-.03-1.28-.03-.74,0-1.01.03-1.34.03-.02-.05-.03-.26,0-.3.18-.04.35-.07.43-.12.1-.05.1-.14.09-.17-.07-.29-.28-.9-.4-1.2-.02-.02-.05-.06-.09-.06-.14,0-.44,0-.67,0h0ZM4.18,40.02c-.31-.04-.44-.05-.59-.11-.18-.07-.21-.24-.22-.4-.03-.55-.02-2.75-.02-3.99,0-.04.02-.06.04-.07.13,0,.68-.02.92,0,.17.02.26.07.34.27.08.22.13.47.18.78.03.03.29.02.32-.02.04-.57.12-1.16.21-1.53,0-.02-.03-.07-.05-.07-.23.07-.52.11-.99.11H1.21c-.21,0-.53-.02-.81-.11-.03,0-.08.03-.08.05-.03.4-.11,1.13-.18,1.49.03.06.3.11.33.09.1-.29.21-.54.32-.75.12-.24.25-.31.43-.32.2-.02.68-.02.84,0,.03,0,.04.05.04.07,0,1.37,0,2.98-.03,3.87-.03.39-.1.48-.32.54-.11.04-.34.06-.56.09-.04.04-.04.25,0,.3.29,0,.75-.03,1.54-.03.6,0,1.07.03,1.42.03.04-.04.05-.26.02-.3h0ZM28.08,34.99v1.28s-.02,0-.02,0c-.18.49-.4,1.22-.54,1.62,0,.03,0,.06.02.06.1,0,.26,0,.5,0h.05v.51c-.35,0-.57,0-.7,0-.03,0-.08.04-.1.08-.15.43-.33.94-.33,1.09,0,.12.03.25.25.29.14.04.27.06.43.09.03.04,0,.26-.03.3-.25,0-.6-.03-1.11-.03-.32,0-.68.03-.99.03-.03-.04-.04-.25,0-.3.61-.1.74-.18.96-.7.48-1.14,1.19-3.09,1.41-3.72.07-.18.16-.47.18-.61h.03ZM28.08,44.89v.98c-.07-.27-.17-.43-.32-.53-.18-.15-.39-.2-.66-.2-.47,0-.75.32-.75.74,0,.37.18.61.54.85.38.24.6.37.97.6.08.05.15.1.22.14v2.6c-.35.22-.81.36-1.39.36-.61,0-1.14-.17-1.36-.28-.1-.14-.27-1.11-.28-1.41.03-.05.25-.12.31-.1.19.61.42.95.75,1.19.23.17.54.24.8.24.41,0,.74-.25.74-.68,0-.41-.17-.68-.98-1.18-.75-.47-1.38-.87-1.38-1.8,0-1.04.86-1.59,1.87-1.59.39,0,.68.04.93.08h0ZM5.86,35.27c.18.03.31.04.46.08.18.05.22.15.24.43,0,.26,0,1.03,0,1.89,0,.77,0,1.58,0,1.71-.03.38-.08.51-.32.56l-.4.08s-.03.27,0,.3c.18,0,.61-.03,1.28-.03.81,0,1.23.03,1.39.03.04-.04.07-.25.04-.3-.18-.04-.37-.07-.48-.11-.21-.06-.24-.21-.24-.47,0-.39,0-.98,0-1.54,0,0,0-.04.02-.05.04-.02.11-.02,1.12-.03.39,0,.82,0,.99,0,.03,0,.04.04.04.06,0,.57,0,1.18,0,1.6,0,.28-.08.4-.23.44-.12.03-.25.05-.42.08-.04.04-.04.26,0,.3.19,0,.75-.03,1.33-.03.62,0,1.08.03,1.3.03.04-.03.06-.26.04-.3-.3-.05-.44-.07-.56-.11-.14-.06-.18-.2-.18-.44-.02-.39-.02-1.07-.02-1.66,0-1.08,0-1.45.02-2.04,0-.27.06-.36.22-.41.1-.04.25-.06.41-.09.04-.04.04-.26,0-.3-.25,0-.53.03-1.25.03s-.97-.03-1.33-.03c-.05.04-.05.26,0,.3.21.03.36.04.48.09.13.04.17.19.18.31.03.48.02,1.13.02,1.57,0,.03-.03.05-.05.06-.11,0-.41,0-.95,0-.95,0-1.05,0-1.13-.02-.03,0-.04-.04-.04-.06,0-.48,0-1.02,0-1.44,0-.26.04-.38.21-.44.09-.04.26-.06.4-.08.04-.03.04-.25,0-.3-.23,0-.61.03-1.29.03-.72,0-1.09-.03-1.29-.03-.04.03-.04.27,0,.3h0ZM12.47,35.27c.17.02.32.04.46.08.17.05.23.12.25.37.03.32.03,1,.03,1.65,0,1.01,0,1.61-.03,2.12,0,.28-.09.38-.25.42-.12.03-.34.07-.65.11-.02.04-.02.23,0,.3.47,0,1.11-.03,1.58-.03.93,0,1.77.04,2.51.04.38,0,.42-.06.46-.14.16-.3.36-1.09.4-1.29-.04-.04-.26-.12-.32-.11-.13.31-.3.61-.47.81-.19.23-.32.26-.71.26-.49,0-.92-.03-1.09-.06-.11-.03-.18-.15-.18-.29v-1.54s.04-.08.06-.08c.26,0,.94,0,1.1.02.18.03.25.12.3.25l.09.36s.3.02.34,0c0-.25-.02-.65-.02-.89,0-.28.03-.64.04-.85-.04-.04-.31-.04-.35-.02-.03.11-.04.23-.07.32-.05.22-.13.3-.32.31-.28.02-.89,0-1.11,0-.03,0-.06-.04-.06-.07,0-.6,0-1.14,0-1.7,0-.04.04-.15.09-.16.14-.02.99-.02,1.22,0,.12,0,.27.05.36.23.07.14.11.32.17.65.04.03.28,0,.33-.03.03-.49.06-1.05.12-1.33,0-.02-.02-.04-.03-.04-.31.04-.8.05-1.14.05h-1.76c-.43,0-.98-.03-1.33-.03-.04.03-.05.25-.02.3h0ZM19.18,35.27c.18.03.31.04.46.08.18.05.22.15.24.43,0,.26,0,1.03,0,1.89,0,.77,0,1.58,0,1.71-.03.38-.08.51-.32.56l-.4.08s-.03.27,0,.3c.18,0,.61-.03,1.28-.03.81,0,1.23.03,1.39.03.04-.04.07-.25.04-.3-.18-.04-.37-.07-.48-.11-.21-.06-.24-.21-.24-.47,0-.39,0-.98,0-1.54,0,0,0-.04.02-.05.04-.02.11-.02,1.12-.03.39,0,.82,0,.99,0,.03,0,.04.04.04.06,0,.57,0,1.18,0,1.6,0,.28-.08.4-.23.44-.12.03-.25.05-.42.08-.04.04-.04.26,0,.3.19,0,.75-.03,1.33-.03.62,0,1.08.03,1.3.03.04-.03.06-.26.04-.3-.3-.05-.44-.07-.56-.11-.14-.06-.18-.2-.18-.44-.02-.39-.02-1.07-.02-1.66,0-1.08,0-1.45.02-2.04,0-.27.06-.36.22-.41.1-.04.25-.06.41-.09.04-.04.04-.26,0-.3-.25,0-.53.03-1.25.03s-.97-.03-1.33-.03c-.05.04-.05.26,0,.3.21.03.36.04.48.09.13.04.17.19.18.31.03.48.02,1.13.02,1.57,0,.03-.03.05-.05.06-.11,0-.41,0-.95,0-.95,0-1.05,0-1.13-.02-.03,0-.04-.04-.04-.06,0-.48,0-1.02,0-1.44,0-.26.04-.38.21-.44.09-.04.26-.06.4-.08.04-.03.04-.25,0-.3-.23,0-.61.03-1.29.03-.72,0-1.09-.03-1.29-.03-.04.03-.04.27,0,.3h0ZM15.82,48.63c-.05-.03-.28.04-.31.1,0,.31.18,1.27.28,1.41.22.11.75.28,1.36.28,1.36,0,2.11-.75,2.11-1.68,0-.63-.29-1.02-.94-1.42-.38-.23-.6-.36-.97-.6-.36-.25-.54-.48-.54-.85,0-.41.29-.74.75-.74.27,0,.47.05.66.2.21.15.32.4.4.94.04.03.26.03.31-.02.04-.55.09-.96.15-1.29-.43-.04-.79-.16-1.47-.16-1.01,0-1.87.55-1.87,1.59,0,.93.63,1.33,1.38,1.8.82.5.98.76.98,1.18,0,.44-.32.68-.74.68-.25,0-.57-.07-.8-.24-.32-.25-.55-.59-.75-1.19h0ZM19.47,45.23c.14,0,.27.04.39.06.22.06.35.14.66.67.31.54.81,1.47.99,1.86.07.17.11.31.11.45,0,.38,0,.73-.02,1.14,0,.25-.03.44-.25.49-.12.04-.29.06-.54.1-.03.02-.03.26,0,.3.38,0,.64-.04,1.34-.04.52,0,1.17.04,1.47.04.03-.04.05-.27.03-.3-.2-.04-.36-.06-.49-.1-.26-.05-.28-.25-.29-.51,0-.45-.02-.8-.02-1.21,0-.19.03-.27.1-.42.19-.39.72-1.33,1.04-1.86.26-.4.39-.49.64-.58.08-.04.24-.05.4-.08.04-.04.04-.27,0-.3-.27,0-.54.03-.98.03s-.84-.03-1.06-.03c-.04.03-.05.23-.04.3.19.03.31.04.46.08.19.05.22.13.18.29-.1.32-.61,1.29-.89,1.77-.02,0-.04,0-.06,0-.13-.23-.76-1.47-.92-1.83-.05-.12-.07-.22.06-.25.07-.02.19-.05.27-.06.03-.04.03-.26,0-.3-.16,0-.75.03-1.34.03-.47,0-.9-.03-1.21-.03-.04.04-.05.23-.02.29Z"/>
    </g>
    <g>
      <path class="cls-9" d="M40.15,45.24c.25.04.47.08.63.14.18.07.23.25.22.42-.03.68-.22,2.86-.3,3.53-.05.39-.16.51-.4.58-.12.04-.27.05-.44.08-.04.04-.03.25,0,.3.33,0,.7-.03,1.04-.03.58,0,.92.03,1.21.03.04-.04.05-.27.02-.3-.26-.04-.4-.07-.56-.11-.25-.08-.32-.19-.32-.51,0-.62.1-2.39.15-3.07.02,0,.04-.02.05-.02.78,1.88,1.35,3.22,1.56,3.94.04,0,.34.02.39,0,.25-.71,1.29-3.03,1.69-3.92,0,0,.04,0,.04,0,0,.85,0,2.47,0,3.16,0,.26-.04.39-.18.44-.12.04-.25.06-.47.11-.03.04-.04.25,0,.3.39,0,.76-.03,1.25-.03.86,0,1.2.03,1.49.03.04-.04.06-.25.03-.3-.2-.04-.38-.07-.5-.11-.25-.05-.29-.25-.31-.48-.04-.61-.11-2.98-.1-3.61,0-.23.03-.37.24-.45.12-.04.29-.07.54-.11.04-.04.04-.28,0-.3-.53,0-.95.03-1.94.03,0,.13-.09.34-.17.54-.25.63-1.02,2.26-1.26,2.71,0,0-.04.02-.05,0-.24-.47-.9-1.92-1.24-2.69-.09-.18-.15-.39-.17-.56-.84,0-1.44-.03-2.11-.03-.03.02-.05.25-.04.3Z"/>
      <path class="cls-3" d="M40.15,45.24c.25.04.47.08.63.14.18.07.23.25.22.42-.03.68-.22,2.86-.3,3.53-.05.39-.16.51-.4.58-.12.04-.27.05-.44.08-.04.04-.03.25,0,.3.33,0,.7-.03,1.04-.03.58,0,.92.03,1.21.03.04-.04.05-.27.02-.3-.26-.04-.4-.07-.56-.11-.25-.08-.32-.19-.32-.51,0-.62.1-2.39.15-3.07.02,0,.04-.02.05-.02.78,1.88,1.35,3.22,1.56,3.94.04,0,.34.02.39,0,.25-.71,1.29-3.03,1.69-3.92,0,0,.04,0,.04,0,0,.85,0,2.47,0,3.16,0,.26-.04.39-.18.44-.12.04-.25.06-.47.11-.03.04-.04.25,0,.3.39,0,.76-.03,1.25-.03.86,0,1.2.03,1.49.03.04-.04.06-.25.03-.3-.2-.04-.38-.07-.5-.11-.25-.05-.29-.25-.31-.48-.04-.61-.11-2.98-.1-3.61,0-.23.03-.37.24-.45.12-.04.29-.07.54-.11.04-.04.04-.28,0-.3-.53,0-.95.03-1.94.03,0,.13-.09.34-.17.54-.25.63-1.02,2.26-1.26,2.71,0,0-.04.02-.05,0-.24-.47-.9-1.92-1.24-2.69-.09-.18-.15-.39-.17-.56-.84,0-1.44-.03-2.11-.03-.03.02-.05.25-.04.3Z"/>
    </g>
  </g>
</svg>