<svg width="46" height="47" viewBox="0 0 46 47" fill="none" xmlns="http://www.w3.org/2000/svg">
<path d="M22.6311 4.75377C30.6127 4.75377 36.0353 7.35273 38.7483 12.4784C38.9252 12.813 39.3401 12.9407 39.6749 12.7637C40.0095 12.5865 40.1372 12.1717 39.96 11.837C36.9907 6.22725 31.1605 3.38281 22.6311 3.38281C15.144 3.38281 9.71295 5.59181 6.48885 9.94841C4.03858 13.2593 2.89668 17.882 3.1864 23.3169C3.40323 27.3845 4.32565 30.4415 4.36478 30.5696C4.36834 30.5812 4.37217 30.5927 4.37637 30.6042L5.34203 33.2521C5.3423 33.2527 5.34248 33.2533 5.34267 33.2539L9.65001 45.0648L9.6511 45.0678L9.72244 45.2634C7.79677 44.9209 6.17679 43.6115 5.44711 41.7353L3.99251 37.9949C3.45495 36.6124 3.30398 35.109 3.55593 33.6472C3.57545 33.5339 3.56615 33.4175 3.52893 33.3087C3.51552 33.2697 2.18726 29.3466 1.73207 24.2973C1.46589 21.3436 1.54826 18.5963 1.97709 16.1317C2.50735 13.0834 3.57217 10.4637 5.14198 8.34558C5.36748 8.04136 5.30363 7.61216 4.9994 7.38667C4.695 7.16117 4.26572 7.22511 4.04049 7.52924C2.34407 9.81815 1.19605 12.6298 0.628207 15.8861C0.178307 18.4662 0.0896408 21.3312 0.364944 24.4012C0.784559 29.0812 1.91104 32.7653 2.17677 33.5863C1.92281 35.239 2.1079 36.9313 2.7146 38.4917L4.16921 42.2321C4.68579 43.5605 5.58084 44.6881 6.75732 45.493C7.9337 46.2977 9.30894 46.7232 10.7344 46.7232C11.1958 46.736 11.5487 46.2318 11.3785 45.8028L11.3416 45.7019L15.1257 46.3118C15.2406 46.3312 15.3598 46.3174 15.4696 46.279L18.1623 45.2969C19.0202 44.9841 19.7048 44.3561 20.0901 43.5283C20.4754 42.7005 20.5153 41.7724 20.2025 40.9146L17.8271 34.4013C17.6975 34.0456 17.304 33.8621 16.9483 33.9921C16.5926 34.1219 16.4095 34.5153 16.5392 34.871L18.9146 41.3843C19.1019 41.8981 19.078 42.454 18.8472 42.9496C18.6164 43.4453 18.2065 43.8215 17.6927 44.0089L15.6439 44.7561L10.128 29.6315L12.1768 28.8843C13.2375 28.4979 14.4148 29.0457 14.8015 30.1062L15.5965 32.286C15.9401 33.1307 17.1661 32.6754 16.8844 31.8163L16.0895 29.6365C15.4437 27.8659 13.4778 26.9505 11.7071 27.5964L9.02232 28.5756C8.90985 28.6157 8.80832 28.6851 8.72996 28.7749L6.22705 31.6776L5.67115 30.1533C5.59964 29.9117 4.74973 26.9711 4.55352 23.2091C4.36798 19.6528 4.74481 14.6062 7.59399 10.7595C10.5459 6.77448 15.6051 4.75377 22.6311 4.75377ZM9.00545 30.5549L14.1905 44.7723L10.8036 44.2265L6.76525 33.153L9.00545 30.5549Z" fill="white"/>
<path d="M44.6695 16.0961C44.1327 12.8591 43.0288 10.0542 41.3886 7.75898C37.7182 2.62281 31.4074 0.0185547 22.6316 0.0185547H22.6306C15.3453 0.0185547 9.73151 1.82463 5.94531 5.38661C5.30549 6.03181 6.20319 6.98388 6.88461 6.38511C10.4082 3.07025 15.7058 1.38951 22.6316 1.38951C30.9372 1.38951 36.8718 3.79946 40.2705 8.55242C43.7225 13.3798 43.9434 19.8324 43.5209 24.3954C43.0586 29.3873 41.7462 33.2705 41.733 33.3091C41.6958 33.4179 41.6865 33.5342 41.706 33.6473C41.958 35.109 41.8071 36.6124 41.2695 37.9949L39.8149 41.7354C39.0852 43.6116 37.4653 44.921 35.5395 45.2634L35.6109 45.0678C35.6112 45.0668 35.6116 45.0658 35.612 45.0648L39.9193 33.2539C39.9195 33.2533 39.9198 33.2528 39.92 33.2521L40.8856 30.6043C40.8898 30.5929 40.8936 30.5814 40.8972 30.5697C41.0036 30.2215 43.4758 21.9574 41.0979 14.5563C40.982 14.1959 40.5953 13.9975 40.2356 14.1133C39.8751 14.2292 39.6768 14.6152 39.7926 14.9756C41.9899 21.8142 39.7101 29.7491 39.5907 30.1534L39.0348 31.6777L36.5319 28.7748C36.4535 28.6849 36.3517 28.6154 36.2389 28.5752L33.5548 27.5964C32.697 27.2835 31.7688 27.3235 30.9411 27.7087C30.1135 28.0941 29.4852 28.7787 29.1725 29.6364L25.0595 40.9144C24.7466 41.7721 24.7866 42.7004 25.1719 43.528C25.5572 44.3558 26.2418 44.9839 27.0996 45.2967L29.7924 46.2788C29.9022 46.3172 30.0214 46.331 30.1363 46.3115L33.9204 45.7016L33.8835 45.8026C33.7132 46.2317 34.0661 46.7359 34.5275 46.7229C35.9529 46.7229 37.3282 46.2976 38.5047 45.4927C39.6811 44.688 40.5761 43.5604 41.0928 42.2319L42.5474 38.4915C43.1541 36.9311 43.3391 35.2389 43.0852 33.5862C43.3485 32.7741 44.4542 29.1635 44.8844 24.5394C45.1671 21.5012 45.0948 18.6603 44.6695 16.0961ZM26.4148 42.9498C26.1841 42.4541 26.1602 41.8981 26.3475 41.3844L30.4606 30.1065C30.6479 29.5927 31.0241 29.1828 31.5198 28.952C32.0156 28.7213 32.5714 28.6973 33.0852 28.8846L35.1341 29.6318L29.6181 44.7563L27.5693 44.0091C27.0557 43.8217 26.6457 43.4455 26.4148 42.9498ZM31.0716 44.7725L36.2567 30.555L38.497 33.1531L34.4586 44.2266L31.0716 44.7725Z" fill="white"/>
</svg>
